<?xml version="1.0" encoding="utf-8"?>
<!-- Generator: Adobe Illustrator 16.0.0, SVG Export Plug-In . SVG Version: 6.00 Build 0)  -->
<!DOCTYPE svg PUBLIC "-//W3C//DTD SVG 1.1//EN" "http://www.w3.org/Graphics/SVG/1.1/DTD/svg11.dtd">
<svg version="1.1" id="Layer_1" xmlns="http://www.w3.org/2000/svg" xmlns:xlink="http://www.w3.org/1999/xlink" x="0px" y="0px"
	 width="32px" height="32px" viewBox="0 0 32 32" enable-background="new 0 0 32 32" xml:space="preserve">
<path fill="#00D10D" d="M2.323,18.076C2.107,17.861,2,17.538,2,17.324c0-0.217,0.107-0.539,0.323-0.755l1.507-1.508
	c0.431-0.431,1.077-0.431,1.508,0l0.108,0.108l5.923,6.354c0.216,0.216,0.539,0.216,0.754,0l14.432-14.97h0.106l0,0
	c0.431-0.431,1.078-0.431,1.509,0l1.507,1.508c0.431,0.431,0.431,1.077,0,1.508l0,0l-17.23,17.876
	c-0.215,0.216-0.431,0.324-0.754,0.324c-0.323,0-0.539-0.108-0.754-0.324l-8.4-9.047L2.323,18.076z"/>
</svg>
