<?xml version="1.0" encoding="utf-8"?>
<!-- Generator: Adobe Illustrator 16.0.0, SVG Export Plug-In . SVG Version: 6.00 Build 0)  -->
<!DOCTYPE svg PUBLIC "-//W3C//DTD SVG 1.1//EN" "http://www.w3.org/Graphics/SVG/1.1/DTD/svg11.dtd">
<svg version="1.1" id="Capa_1" xmlns="http://www.w3.org/2000/svg" xmlns:xlink="http://www.w3.org/1999/xlink" x="0px" y="0px"
	 width="15px" height="17.73px" viewBox="0 0 15 17.73" enable-background="new 0 0 15 17.73" xml:space="preserve">
<g>
	<path fill="#F7746A" d="M14.771,0.585c-0.152-0.219-0.357-0.379-0.615-0.479C13.992,0.035,13.82,0,13.641,0l0,0H1.358
		c-0.18,0-0.351,0.035-0.515,0.105C0.586,0.207,0.381,0.367,0.229,0.585C0.076,0.804,0,1.046,0,1.313v15.104
		c0,0.267,0.076,0.508,0.229,0.728c0.152,0.221,0.357,0.381,0.615,0.479c0.164,0.07,0.335,0.105,0.515,0.105
		c0.368,0,0.691-0.129,0.974-0.39L7.5,12.373l5.168,4.971c0.271,0.248,0.598,0.373,0.973,0.373c0.195,0,0.367-0.028,0.517-0.094
		c0.258-0.1,0.463-0.262,0.614-0.479C14.924,16.926,15,16.683,15,16.416V1.312C15,1.046,14.925,0.804,14.771,0.585z"/>
</g>
</svg>
