<?xml version="1.0" encoding="utf-8"?>
<!-- Generator: Adobe Illustrator 16.0.0, SVG Export Plug-In . SVG Version: 6.00 Build 0)  -->
<!DOCTYPE svg PUBLIC "-//W3C//DTD SVG 1.1//EN" "http://www.w3.org/Graphics/SVG/1.1/DTD/svg11.dtd">
<svg version="1.1" id="Layer_1" xmlns="http://www.w3.org/2000/svg" xmlns:xlink="http://www.w3.org/1999/xlink" x="0px" y="0px"
	 width="32px" height="32px" viewBox="0 0 32 32" enable-background="new 0 0 32 32" xml:space="preserve">
<g>
	<path fill="#F44336" d="M21.815,26.979l-0.392,1.6c-1.174,0.463-2.111,0.815-2.809,1.058C17.916,29.879,17.104,30,16.179,30
		c-1.421,0-2.526-0.349-3.314-1.039c-0.788-0.694-1.183-1.574-1.183-2.642c0-0.412,0.029-0.838,0.088-1.271
		c0.061-0.433,0.156-0.921,0.286-1.467l1.467-5.191c0.131-0.497,0.241-0.969,0.33-1.414c0.091-0.442,0.134-0.85,0.134-1.216
		c0-0.663-0.138-1.126-0.41-1.388c-0.273-0.26-0.795-0.392-1.569-0.392c-0.38,0-0.769,0.061-1.166,0.178
		c-0.399,0.118-0.74,0.232-1.026,0.337l0.393-1.601c0.961-0.391,1.879-0.726,2.758-1.004c0.878-0.279,1.708-0.418,2.493-0.418
		c1.412,0,2.501,0.341,3.265,1.023c0.766,0.683,1.146,1.567,1.146,2.658c0,0.226-0.023,0.623-0.078,1.191
		c-0.054,0.569-0.15,1.092-0.295,1.565l-1.46,5.171c-0.119,0.415-0.228,0.891-0.32,1.425c-0.098,0.53-0.144,0.937-0.144,1.208
		c0,0.686,0.154,1.155,0.46,1.404c0.31,0.249,0.843,0.374,1.599,0.374c0.354,0,0.759-0.063,1.207-0.188S21.612,27.073,21.815,26.979
		z M22.186,5.27c0,0.901-0.339,1.671-1.021,2.304c-0.681,0.635-1.501,0.952-2.461,0.952c-0.962,0-1.783-0.317-2.473-0.952
		c-0.687-0.633-1.031-1.402-1.031-2.304c0-0.899,0.345-1.669,1.031-2.31C16.918,2.319,17.741,2,18.703,2
		c0.959,0,1.78,0.32,2.461,0.959C21.847,3.6,22.186,4.371,22.186,5.27z"/>
</g>
</svg>
