<?xml version="1.0" encoding="utf-8"?>
<!-- Generator: Adobe Illustrator 16.0.0, SVG Export Plug-In . SVG Version: 6.00 Build 0)  -->
<!DOCTYPE svg PUBLIC "-//W3C//DTD SVG 1.1//EN" "http://www.w3.org/Graphics/SVG/1.1/DTD/svg11.dtd">
<svg version="1.1" id="Layer_1" xmlns="http://www.w3.org/2000/svg" xmlns:xlink="http://www.w3.org/1999/xlink" x="0px" y="0px"
	 width="155.91px" height="130.25px" viewBox="0 0 155.91 130.25" enable-background="new 0 0 155.91 130.25" xml:space="preserve">
<g>
	<g>
		<g>
			<path fill="#ADADAD" d="M82.506,79.418c-3.216-4.551-8.382-7.332-13.92-7.542c-0.116-0.013-0.235-0.021-0.356-0.021
				c-7.045,0-12.865-5.324-13.66-12.16c2.029-1.478,3.9-3.352,5.56-5.596c3.354-4.542,5.532-10.217,6.339-16.353
				c0.247-0.269,0.456-0.582,0.605-0.938c1.42-3.382,2.141-6.993,2.141-10.731C69.214,11.699,58.342,0,44.98,0
				c-3.455,0-6.809,0.785-9.979,2.334c-1.186,0.1-2.346,0.313-3.46,0.636C20.371,6.198,14.056,19.705,17.466,33.08
				c0.343,1.346,0.78,2.669,1.298,3.933c0.143,0.345,0.339,0.648,0.573,0.914c1.286,9.446,5.757,17.306,11.873,21.752
				c-0.786,6.845-6.612,12.177-13.663,12.177c-0.108,0-0.216,0.006-0.322,0.018C7.67,72.211,0.001,80.083,0.001,89.719v19.227
				c0,1.793,1.454,3.248,3.248,3.248h57.385c1.793,0,3.248-1.455,3.248-3.248c0-1.795-1.455-3.248-3.248-3.248H6.496V89.719
				c0-6.27,5.099-11.367,11.366-11.367c0.108,0,0.217-0.006,0.322-0.017c2.339-0.072,4.58-0.543,6.656-1.349L40.217,99.18
				c0.607,0.875,1.604,1.398,2.671,1.398c1.065,0,2.063-0.523,2.668-1.398l15.377-22.193c2.076,0.806,4.316,1.275,6.656,1.349
				c0.105,0.011,0.213,0.017,0.322,0.017c3.686,0,7.158,1.801,9.291,4.815c0.633,0.896,1.636,1.373,2.654,1.373
				c0.648,0,1.304-0.193,1.871-0.597C83.193,82.909,83.542,80.883,82.506,79.418z M33.341,9.21c0.852-0.246,1.754-0.392,2.678-0.434
				c0.478-0.021,0.942-0.147,1.365-0.369c2.414-1.268,4.969-1.911,7.592-1.911c9.584,0,17.41,8.433,17.725,18.929
				c-1.953-1.477-4.383-2.355-7.016-2.355H38.701c-0.846,0-1.648-0.266-2.322-0.768c-0.576-0.43-1.021-1.006-1.286-1.669
				c-0.614-1.527-2.132-2.48-3.771-2.377c-1.649,0.105-3.037,1.252-3.453,2.851c-0.829,3.183-2.375,6.147-4.479,8.665
				C21.707,20.354,25.948,11.346,33.341,9.21z M25.724,36.715c2.837-2.601,5.133-5.752,6.736-9.233
				c0.012,0.008,0.021,0.017,0.033,0.025c1.804,1.347,3.951,2.058,6.208,2.058h16.985c2.039,0,3.802,1.193,4.639,2.916
				c-0.021,6.747-1.944,13.05-5.422,17.758c-3.28,4.439-7.547,6.885-12.018,6.885c-4.136,0-8.162-2.138-11.339-6.016
				C28.466,47.344,26.427,42.278,25.724,36.715z M42.886,91.627L30.458,73.688c3.334-2.768,5.765-6.582,6.793-10.935
				c1.81,0.565,3.697,0.867,5.636,0.867c1.93,0,3.817-0.292,5.639-0.857c1.029,4.349,3.459,8.159,6.791,10.925L42.886,91.627z"/>
		</g>
	</g>
	<g>
		<g>
			<path fill="#ADADAD" d="M138.687,89.929c-0.106-0.011-0.215-0.017-0.322-0.017c-7.055,0-12.883-5.338-13.664-12.188
				c3.979-2.896,7.258-7.238,9.42-12.521c0.309,1.013,1.102,1.828,2.143,2.152c0.316,0.099,0.642,0.146,0.963,0.146
				c0.982,0,1.937-0.448,2.563-1.252c4.531-5.82,6.887-13.396,6.633-21.329c-0.249-7.783-2.984-15.09-7.705-20.574
				c-4.832-5.615-11.212-8.739-17.97-8.804c-0.358-0.015-1.25,0.016-1.394,0.025c-3.474-1.575-7.142-2.311-10.92-2.19
				c-7.804,0.25-14.98,4.139-20.209,10.951c-5.082,6.62-7.723,15.255-7.433,24.315c0.049,1.535,0.17,2.949,0.366,4.294
				c0.527,3.861,1.593,7.56,3.16,10.99c0.5,1.092,1.562,1.821,2.76,1.893c1.193,0.072,2.339-0.523,2.966-1.549
				c0.263-0.427,0.597-0.959,0.968-1.481c1.448,4.399,3.661,8.351,6.473,11.47c1.199,1.332,2.494,2.489,3.856,3.477
				c-0.786,6.843-6.612,12.175-13.661,12.175c-0.109,0-0.217,0.006-0.322,0.016c-9.555,0.339-17.223,8.214-17.223,17.849v19.227
				c0,1.793,1.454,3.248,3.248,3.248h79.278c1.794,0,3.248-1.455,3.248-3.248v-19.227C155.91,98.141,148.24,90.268,138.687,89.929z
				 M88.341,55.876c-0.32-1.251-0.57-2.534-0.75-3.845c-0.164-1.129-0.266-2.305-0.307-3.593c-0.241-7.563,1.922-14.72,6.092-20.152
				c4.021-5.24,9.443-8.228,15.266-8.414c0.193-0.006,4.381-0.242,8.654,1.912c0.477,0.24,1.027,0.352,1.564,0.337
				c0.061-0.002,1.729-0.081,1.777-0.08c4.877,0.032,9.549,2.357,13.154,6.546c3.755,4.363,5.936,10.238,6.137,16.544
				c0.108,3.425-0.373,6.754-1.392,9.816c-0.308-0.817-0.649-1.623-1.026-2.416c-3.136-6.672-8.414-11.84-14.863-14.552
				c-0.816-0.343-1.738-0.338-2.551,0.015c-0.813,0.352-1.447,1.021-1.755,1.853c-0.432,1.168-0.956,2.306-1.558,3.382
				c-1.7,3.041-5.128,4.85-8.939,4.716c-0.572-0.02-1.154-0.021-1.727-0.002c-2.809,0.09-5.549,0.625-8.155,1.596
				C95.39,50.511,91.062,52.949,88.341,55.876z M96.332,57.643c1.232-0.824,2.542-1.504,3.914-2.022
				c1.932-0.72,3.979-1.118,6.082-1.187c0.429-0.014,0.863-0.013,1.293,0.002c6.271,0.215,11.941-2.865,14.834-8.039
				c0.178-0.318,0.352-0.642,0.52-0.968c2.961,1.825,5.493,4.397,7.396,7.519c-0.016,0.097-0.029,0.193-0.037,0.293
				c-0.499,6.162-2.625,11.818-5.986,15.924c-3.176,3.88-7.203,6.017-11.34,6.017C105.361,75.182,98.56,67.914,96.332,57.643z
				 M107.386,80.805c1.828,0.571,3.715,0.873,5.621,0.873c1.945,0,3.836-0.303,5.65-0.873c1.305,5.531,4.881,10.191,9.689,12.941
				c-1.875,6.775-8.108,11.648-15.324,11.648c-7.217,0-13.449-4.873-15.324-11.649C102.505,90.996,106.083,86.336,107.386,80.805z
				 M149.414,123.754H76.63v-15.979c0-6.269,5.1-11.367,11.368-11.367c0.108,0,0.216-0.006,0.321-0.018
				c1.119-0.033,2.215-0.156,3.281-0.367c2.82,9.262,11.453,15.867,21.422,15.867c9.967,0,18.6-6.605,21.422-15.867
				c1.064,0.211,2.162,0.334,3.279,0.367c0.106,0.012,0.213,0.018,0.321,0.018c6.269,0,11.367,5.1,11.367,11.367L149.414,123.754
				L149.414,123.754z"/>
		</g>
	</g>
</g>
</svg>
